<svg width="410" height="410" viewBox="0 0 410 410" fill="none" xmlns="http://www.w3.org/2000/svg">
<path d="M95 152C150.194 140.601 193.831 97.2408 205 42V42V42C216.169 97.2408 259.806 140.601 315 152V152V152C260.702 162.624 219.89 207.747 214.756 262.836L205 367.5L195.244 262.836C190.11 207.747 149.298 162.624 95 152V152V152Z" fill="black"/>
<path d="M135.208 103.576C132.552 103.576 130.104 103.16 127.864 102.328C125.656 101.464 123.72 100.248 122.056 98.68C120.424 97.112 119.144 95.272 118.216 93.16C117.32 91.048 116.872 88.728 116.872 86.2C116.872 83.672 117.32 81.352 118.216 79.24C119.144 77.128 120.44 75.288 122.104 73.72C123.768 72.152 125.72 70.952 127.96 70.12C130.2 69.256 132.664 68.824 135.352 68.824C138.328 68.824 141 69.32 143.368 70.312C145.768 71.304 147.784 72.744 149.416 74.632L144.424 79.24C143.208 77.96 141.88 77.016 140.44 76.408C139 75.768 137.432 75.448 135.736 75.448C134.104 75.448 132.616 75.704 131.272 76.216C129.928 76.728 128.76 77.464 127.768 78.424C126.808 79.384 126.056 80.52 125.512 81.832C125 83.144 124.744 84.6 124.744 86.2C124.744 87.768 125 89.208 125.512 90.52C126.056 91.832 126.808 92.984 127.768 93.976C128.76 94.936 129.912 95.672 131.224 96.184C132.568 96.696 134.04 96.952 135.64 96.952C137.176 96.952 138.664 96.712 140.104 96.232C141.576 95.72 143 94.872 144.376 93.688L148.792 99.304C146.968 100.68 144.84 101.736 142.408 102.472C140.008 103.208 137.608 103.576 135.208 103.576ZM141.688 98.296V85.672H148.792V99.304L141.688 98.296Z" fill="black"/>
<path d="M266.984 103V69.4H274.76V96.664H291.608V103H266.984Z" fill="black"/>
<path d="M133.304 234.576C130.648 234.576 128.184 234.144 125.912 233.28C123.672 232.416 121.72 231.2 120.056 229.632C118.424 228.064 117.144 226.224 116.216 224.112C115.32 222 114.872 219.696 114.872 217.2C114.872 214.704 115.32 212.4 116.216 210.288C117.144 208.176 118.44 206.336 120.104 204.768C121.768 203.2 123.72 201.984 125.96 201.12C128.2 200.256 130.632 199.824 133.256 199.824C135.912 199.824 138.344 200.256 140.552 201.12C142.792 201.984 144.728 203.2 146.36 204.768C148.024 206.336 149.32 208.176 150.248 210.288C151.176 212.368 151.64 214.672 151.64 217.2C151.64 219.696 151.176 222.016 150.248 224.16C149.32 226.272 148.024 228.112 146.36 229.68C144.728 231.216 142.792 232.416 140.552 233.28C138.344 234.144 135.928 234.576 133.304 234.576ZM133.256 227.952C134.76 227.952 136.136 227.696 137.384 227.184C138.664 226.672 139.784 225.936 140.744 224.976C141.704 224.016 142.44 222.88 142.952 221.568C143.496 220.256 143.768 218.8 143.768 217.2C143.768 215.6 143.496 214.144 142.952 212.832C142.44 211.52 141.704 210.384 140.744 209.424C139.816 208.464 138.712 207.728 137.432 207.216C136.152 206.704 134.76 206.448 133.256 206.448C131.752 206.448 130.36 206.704 129.08 207.216C127.832 207.728 126.728 208.464 125.768 209.424C124.808 210.384 124.056 211.52 123.512 212.832C123 214.144 122.744 215.6 122.744 217.2C122.744 218.768 123 220.224 123.512 221.568C124.056 222.88 124.792 224.016 125.72 224.976C126.68 225.936 127.8 226.672 129.08 227.184C130.36 227.696 131.752 227.952 133.256 227.952Z" fill="black"/>
<path d="M264.824 234V228.96L285.608 203.904L286.568 206.736H265.208V200.4H293.48V205.44L272.744 230.496L271.784 227.664H294.2V234H264.824Z" fill="black"/>
</svg>
